# Wavefront OBJ file automatically generated by Tiled2Unity

# Vertices (Count = 414)
v -1 -2 0
v -2 -2 0
v -2 -1 0
v -1 -1 0
v -3 -2 0
v -3 -1 0
v -4 -2 0
v -4 -1 0
v -5 -2 0
v -5 -1 0
v -6 -2 0
v -6 -1 0
v -7 -2 0
v -7 -1 0
v -8 -2 0
v -8 -1 0
v -9 -2 0
v -9 -1 0
v -10 -2 0
v -10 -1 0
v -11 -2 0
v -11 -1 0
v -12 -2 0
v -12 -1 0
v -13 -2 0
v -13 -1 0
v -14 -2 0
v -14 -1 0
v -15 -2 0
v -15 -1 0
v -1 -3 0
v -2 -3 0
v -3 -3 0
v -4 -3 0
v -5 -3 0
v -6 -3 0
v -7 -3 0
v -8 -3 0
v -9 -3 0
v -10 -3 0
v -11 -3 0
v -12 -3 0
v -13 -3 0
v -14 -3 0
v -15 -3 0
v -1 -4 0
v -2 -4 0
v -3 -4 0
v -4 -4 0
v -5 -4 0
v -6 -4 0
v -7 -4 0
v -8 -4 0
v -9 -4 0
v -10 -4 0
v -11 -4 0
v -12 -4 0
v -13 -4 0
v -14 -4 0
v -15 -4 0
v -1 -5 0
v -2 -5 0
v -3 -5 0
v -4 -5 0
v -5 -5 0
v -6 -5 0
v -7 -5 0
v -8 -5 0
v -9 -5 0
v -10 -5 0
v -11 -5 0
v -12 -5 0
v -13 -5 0
v -14 -5 0
v -15 -5 0
v -1 -6 0
v -2 -6 0
v -3 -6 0
v -4 -6 0
v -5 -6 0
v -6 -6 0
v -7 -6 0
v -8 -6 0
v -9 -6 0
v -10 -6 0
v -11 -6 0
v -12 -6 0
v -13 -6 0
v -14 -6 0
v -15 -6 0
v -1 -7 0
v -2 -7 0
v -3 -7 0
v -4 -7 0
v -5 -7 0
v -6 -7 0
v -7 -7 0
v -8 -7 0
v -9 -7 0
v -10 -7 0
v -11 -7 0
v -12 -7 0
v -13 -7 0
v -14 -7 0
v -15 -7 0
v -1 -8 0
v -2 -8 0
v -3 -8 0
v -4 -8 0
v -5 -8 0
v -6 -8 0
v -7 -8 0
v -8 -8 0
v -9 -8 0
v -10 -8 0
v -11 -8 0
v -12 -8 0
v -1 -9 0
v -2 -9 0
v -3 -9 0
v -4 -9 0
v -5 -9 0
v -6 -9 0
v -7 -9 0
v -8 -9 0
v -9 -9 0
v -10 -9 0
v -11 -9 0
v -12 -9 0
v -1 -10 0
v -2 -10 0
v -3 -10 0
v -4 -10 0
v -5 -10 0
v -6 -10 0
v -7 -10 0
v -8 -10 0
v -9 -10 0
v -10 -10 0
v -11 -10 0
v -12 -10 0
v -1 -11 0
v -2 -11 0
v -3 -11 0
v -4 -11 0
v -5 -11 0
v -6 -11 0
v -7 -11 0
v -8 -11 0
v -9 -11 0
v -10 -11 0
v -11 -11 0
v -12 -11 0
v -1 -12 0
v -2 -12 0
v -3 -12 0
v -4 -12 0
v -5 -12 0
v -6 -12 0
v -7 -12 0
v -8 -12 0
v -9 -12 0
v -10 -12 0
v -11 -12 0
v -12 -12 0
v -1 -13 0
v -2 -13 0
v -3 -13 0
v -4 -13 0
v -5 -13 0
v -6 -13 0
v -7 -13 0
v -8 -13 0
v -9 -13 0
v -10 -13 0
v -11 -13 0
v -12 -13 0
v -1 -14 0
v -2 -14 0
v -3 -14 0
v -4 -14 0
v -5 -14 0
v -6 -14 0
v -7 -14 0
v -8 -14 0
v -9 -14 0
v -10 -14 0
v -11 -14 0
v -12 -14 0
v 0 -1 0
v -1 0 0
v 0 0 0
v -2 0 0
v -3 0 0
v -4 0 0
v -5 0 0
v -6 0 0
v -7 0 0
v -8 0 0
v -9 0 0
v -10 0 0
v -11 0 0
v -12 0 0
v -13 0 0
v -14 0 0
v -15 0 0
v -16 -1 0
v -16 0 0
v -17 -1 0
v -17 0 0
v -18 -1 0
v -18 0 0
v -19 -1 0
v -19 0 0
v -20 -1 0
v -20 0 0
v -21 -1 0
v -21 0 0
v -22 -1 0
v -22 0 0
v -23 -1 0
v -23 0 0
v -24 -1 0
v -24 0 0
v -25 -1 0
v -25 0 0
v -26 -1 0
v -26 0 0
v -27 -1 0
v -27 0 0
v -28 -1 0
v -28 0 0
v -29 -1 0
v -29 0 0
v -30 -1 0
v -30 0 0
v -31 -1 0
v -31 0 0
v -32 -1 0
v -32 0 0
v -33 -1 0
v -33 0 0
v -34 -1 0
v -34 0 0
v -35 -1 0
v -35 0 0
v -36 -1 0
v -36 0 0
v -37 -1 0
v -37 0 0
v -38 -1 0
v -38 0 0
v -39 -1 0
v -39 0 0
v -40 -1 0
v -40 0 0
v -41 -1 0
v -41 0 0
v -42 -1 0
v -42 0 0
v -43 -1 0
v -43 0 0
v -44 -1 0
v -44 0 0
v -45 -1 0
v -45 0 0
v -46 -1 0
v -46 0 0
v 0 -2 0
v -45 -2 0
v -46 -2 0
v 0 -3 0
v -45 -3 0
v -46 -3 0
v 0 -4 0
v -45 -4 0
v -46 -4 0
v 0 -5 0
v -45 -5 0
v -46 -5 0
v 0 -6 0
v -45 -6 0
v -46 -6 0
v 0 -7 0
v -45 -7 0
v -46 -7 0
v 0 -8 0
v -45 -8 0
v -46 -8 0
v 0 -9 0
v -45 -9 0
v -46 -9 0
v 0 -10 0
v -28 -10 0
v -29 -10 0
v -29 -9 0
v -28 -9 0
v -30 -10 0
v -30 -9 0
v -31 -10 0
v -31 -9 0
v -32 -10 0
v -32 -9 0
v -33 -10 0
v -33 -9 0
v -34 -10 0
v -34 -9 0
v -35 -10 0
v -35 -9 0
v -36 -10 0
v -36 -9 0
v -37 -10 0
v -37 -9 0
v -38 -10 0
v -38 -9 0
v -39 -10 0
v -39 -9 0
v -40 -10 0
v -40 -9 0
v -41 -10 0
v -41 -9 0
v -42 -10 0
v -42 -9 0
v -43 -10 0
v -43 -9 0
v -44 -10 0
v -44 -9 0
v -45 -10 0
v -46 -10 0
v 0 -11 0
v -28 -11 0
v -29 -11 0
v 0 -12 0
v -28 -12 0
v -29 -12 0
v 0 -13 0
v -28 -13 0
v -29 -13 0
v 0 -14 0
v -28 -14 0
v -29 -14 0
v 0 -15 0
v -1 -15 0
v -2 -15 0
v -3 -15 0
v -4 -15 0
v -5 -15 0
v -6 -15 0
v -7 -15 0
v -8 -15 0
v -9 -15 0
v -10 -15 0
v -11 -15 0
v -12 -15 0
v -28 -15 0
v -29 -15 0
v -11 -16 0
v -12 -16 0
v -28 -16 0
v -29 -16 0
v -11 -17 0
v -12 -17 0
v -28 -17 0
v -29 -17 0
v -11 -18 0
v -12 -18 0
v -28 -18 0
v -29 -18 0
v -11 -19 0
v -12 -19 0
v -28 -19 0
v -29 -19 0
v -11 -20 0
v -12 -20 0
v -28 -20 0
v -29 -20 0
v -11 -21 0
v -12 -21 0
v -28 -21 0
v -29 -21 0
v -11 -22 0
v -12 -22 0
v -13 -22 0
v -13 -21 0
v -14 -22 0
v -14 -21 0
v -15 -22 0
v -15 -21 0
v -16 -22 0
v -16 -21 0
v -17 -22 0
v -17 -21 0
v -18 -22 0
v -18 -21 0
v -19 -22 0
v -19 -21 0
v -20 -22 0
v -20 -21 0
v -21 -22 0
v -21 -21 0
v -22 -22 0
v -22 -21 0
v -23 -22 0
v -23 -21 0
v -24 -22 0
v -24 -21 0
v -25 -22 0
v -25 -21 0
v -26 -22 0
v -26 -21 0
v -27 -22 0
v -27 -21 0
v -28 -22 0
v -29 -22 0

# Texture cooridinates (Count = 32)
vt 1.220703E-05 0.9000122
vt 0.09998779 0.9000122
vt 0.09998779 0.9999878
vt 1.220703E-05 0.9999878
vt 1.220703E-05 0.8000122
vt 0.09998779 0.8000122
vt 0.09998779 0.8999878
vt 1.220703E-05 0.8999878
vt 0.6000122 0.9000122
vt 0.6999878 0.9000122
vt 0.6999878 0.9999878
vt 0.6000122 0.9999878
vt 0.2000122 0.9000122
vt 0.2999878 0.9000122
vt 0.2999878 0.9999878
vt 0.2000122 0.9999878
vt 0.5000122 0.9000122
vt 0.5999878 0.9000122
vt 0.5999878 0.9999878
vt 0.5000122 0.9999878
vt 0.1000122 0.9000122
vt 0.1999878 0.9000122
vt 0.1999878 0.9999878
vt 0.1000122 0.9999878
vt 0.4000122 0.9000122
vt 0.4999878 0.9000122
vt 0.4999878 0.9999878
vt 0.4000122 0.9999878
vt 0.3000122 0.9000122
vt 0.3999878 0.9000122
vt 0.3999878 0.9999878
vt 0.3000122 0.9999878

# Normal
vn 0 0 -1

# Groups (Count = 6)

g mesh_0001
f 1/1/1 2/2/1 3/3/1 4/4/1
f 2/1/1 5/2/1 6/3/1 3/4/1
f 5/1/1 7/2/1 8/3/1 6/4/1
f 7/1/1 9/2/1 10/3/1 8/4/1
f 9/1/1 11/2/1 12/3/1 10/4/1
f 11/1/1 13/2/1 14/3/1 12/4/1
f 13/1/1 15/2/1 16/3/1 14/4/1
f 15/1/1 17/2/1 18/3/1 16/4/1
f 17/5/1 19/6/1 20/7/1 18/8/1
f 19/5/1 21/6/1 22/7/1 20/8/1
f 21/5/1 23/6/1 24/7/1 22/8/1
f 23/5/1 25/6/1 26/7/1 24/8/1
f 25/5/1 27/6/1 28/7/1 26/8/1
f 27/5/1 29/6/1 30/7/1 28/8/1
f 31/1/1 32/2/1 2/3/1 1/4/1
f 32/1/1 33/2/1 5/3/1 2/4/1
f 33/1/1 34/2/1 7/3/1 5/4/1
f 34/1/1 35/2/1 9/3/1 7/4/1
f 35/1/1 36/2/1 11/3/1 9/4/1
f 36/1/1 37/2/1 13/3/1 11/4/1
f 37/1/1 38/2/1 15/3/1 13/4/1
f 38/1/1 39/2/1 17/3/1 15/4/1
f 39/5/1 40/6/1 19/7/1 17/8/1
f 40/5/1 41/6/1 21/7/1 19/8/1
f 41/5/1 42/6/1 23/7/1 21/8/1
f 42/5/1 43/6/1 25/7/1 23/8/1
f 43/5/1 44/6/1 27/7/1 25/8/1
f 44/5/1 45/6/1 29/7/1 27/8/1
f 46/1/1 47/2/1 32/3/1 31/4/1
f 47/1/1 48/2/1 33/3/1 32/4/1
f 48/1/1 49/2/1 34/3/1 33/4/1
f 49/1/1 50/2/1 35/3/1 34/4/1
f 50/1/1 51/2/1 36/3/1 35/4/1
f 51/1/1 52/2/1 37/3/1 36/4/1
f 52/1/1 53/2/1 38/3/1 37/4/1
f 53/1/1 54/2/1 39/3/1 38/4/1
f 54/5/1 55/6/1 40/7/1 39/8/1
f 55/5/1 56/6/1 41/7/1 40/8/1
f 56/5/1 57/6/1 42/7/1 41/8/1
f 57/5/1 58/6/1 43/7/1 42/8/1
f 58/5/1 59/6/1 44/7/1 43/8/1
f 59/5/1 60/6/1 45/7/1 44/8/1
f 61/1/1 62/2/1 47/3/1 46/4/1
f 62/1/1 63/2/1 48/3/1 47/4/1
f 63/1/1 64/2/1 49/3/1 48/4/1
f 64/1/1 65/2/1 50/3/1 49/4/1
f 65/1/1 66/2/1 51/3/1 50/4/1
f 66/1/1 67/2/1 52/3/1 51/4/1
f 67/1/1 68/2/1 53/3/1 52/4/1
f 68/1/1 69/2/1 54/3/1 53/4/1
f 69/5/1 70/6/1 55/7/1 54/8/1
f 70/5/1 71/6/1 56/7/1 55/8/1
f 71/5/1 72/6/1 57/7/1 56/8/1
f 72/5/1 73/6/1 58/7/1 57/8/1
f 73/5/1 74/6/1 59/7/1 58/8/1
f 74/5/1 75/6/1 60/7/1 59/8/1
f 76/5/1 77/6/1 62/7/1 61/8/1
f 77/5/1 78/6/1 63/7/1 62/8/1
f 78/5/1 79/6/1 64/7/1 63/8/1
f 79/5/1 80/6/1 65/7/1 64/8/1
f 80/5/1 81/6/1 66/7/1 65/8/1
f 81/5/1 82/6/1 67/7/1 66/8/1
f 82/5/1 83/6/1 68/7/1 67/8/1
f 83/5/1 84/6/1 69/7/1 68/8/1
f 84/5/1 85/6/1 70/7/1 69/8/1
f 85/5/1 86/6/1 71/7/1 70/8/1
f 86/5/1 87/6/1 72/7/1 71/8/1
f 87/5/1 88/6/1 73/7/1 72/8/1
f 88/5/1 89/6/1 74/7/1 73/8/1
f 89/5/1 90/6/1 75/7/1 74/8/1
f 91/5/1 92/6/1 77/7/1 76/8/1
f 92/5/1 93/6/1 78/7/1 77/8/1
f 93/5/1 94/6/1 79/7/1 78/8/1
f 94/5/1 95/6/1 80/7/1 79/8/1
f 95/5/1 96/6/1 81/7/1 80/8/1
f 96/5/1 97/6/1 82/7/1 81/8/1
f 97/5/1 98/6/1 83/7/1 82/8/1
f 98/5/1 99/6/1 84/7/1 83/8/1
f 99/5/1 100/6/1 85/7/1 84/8/1
f 100/5/1 101/6/1 86/7/1 85/8/1
f 101/5/1 102/6/1 87/7/1 86/8/1
f 102/5/1 103/6/1 88/7/1 87/8/1
f 103/5/1 104/6/1 89/7/1 88/8/1
f 104/5/1 105/6/1 90/7/1 89/8/1
f 106/5/1 107/6/1 92/7/1 91/8/1
f 107/5/1 108/6/1 93/7/1 92/8/1
f 108/1/1 109/2/1 94/3/1 93/4/1
f 109/1/1 110/2/1 95/3/1 94/4/1
f 110/1/1 111/2/1 96/3/1 95/4/1
f 111/1/1 112/2/1 97/3/1 96/4/1
f 112/1/1 113/2/1 98/3/1 97/4/1
f 113/1/1 114/2/1 99/3/1 98/4/1
f 114/1/1 115/2/1 100/3/1 99/4/1
f 115/1/1 116/2/1 101/3/1 100/4/1
f 116/1/1 117/2/1 102/3/1 101/4/1
f 118/5/1 119/6/1 107/7/1 106/8/1
f 119/5/1 120/6/1 108/7/1 107/8/1
f 120/1/1 121/2/1 109/3/1 108/4/1
f 121/1/1 122/2/1 110/3/1 109/4/1
f 122/1/1 123/2/1 111/3/1 110/4/1
f 123/1/1 124/2/1 112/3/1 111/4/1
f 124/1/1 125/2/1 113/3/1 112/4/1
f 125/1/1 126/2/1 114/3/1 113/4/1
f 126/1/1 127/2/1 115/3/1 114/4/1
f 127/1/1 128/2/1 116/3/1 115/4/1
f 128/1/1 129/2/1 117/3/1 116/4/1
f 130/5/1 131/6/1 119/7/1 118/8/1
f 131/5/1 132/6/1 120/7/1 119/8/1
f 132/1/1 133/2/1 121/3/1 120/4/1
f 133/1/1 134/2/1 122/3/1 121/4/1
f 134/1/1 135/2/1 123/3/1 122/4/1
f 135/1/1 136/2/1 124/3/1 123/4/1
f 136/1/1 137/2/1 125/3/1 124/4/1
f 137/1/1 138/2/1 126/3/1 125/4/1
f 138/1/1 139/2/1 127/3/1 126/4/1
f 139/1/1 140/2/1 128/3/1 127/4/1
f 140/1/1 141/2/1 129/3/1 128/4/1
f 142/5/1 143/6/1 131/7/1 130/8/1
f 143/5/1 144/6/1 132/7/1 131/8/1
f 144/1/1 145/2/1 133/3/1 132/4/1
f 145/1/1 146/2/1 134/3/1 133/4/1
f 146/1/1 147/2/1 135/3/1 134/4/1
f 147/1/1 148/2/1 136/3/1 135/4/1
f 148/1/1 149/2/1 137/3/1 136/4/1
f 149/1/1 150/2/1 138/3/1 137/4/1
f 150/1/1 151/2/1 139/3/1 138/4/1
f 151/1/1 152/2/1 140/3/1 139/4/1
f 152/1/1 153/2/1 141/3/1 140/4/1
f 154/5/1 155/6/1 143/7/1 142/8/1
f 155/5/1 156/6/1 144/7/1 143/8/1
f 156/1/1 157/2/1 145/3/1 144/4/1
f 157/1/1 158/2/1 146/3/1 145/4/1
f 158/1/1 159/2/1 147/3/1 146/4/1
f 159/1/1 160/2/1 148/3/1 147/4/1
f 160/1/1 161/2/1 149/3/1 148/4/1
f 161/1/1 162/2/1 150/3/1 149/4/1
f 162/1/1 163/2/1 151/3/1 150/4/1
f 163/1/1 164/2/1 152/3/1 151/4/1
f 164/1/1 165/2/1 153/3/1 152/4/1
f 166/5/1 167/6/1 155/7/1 154/8/1
f 167/5/1 168/6/1 156/7/1 155/8/1
f 168/1/1 169/2/1 157/3/1 156/4/1
f 169/1/1 170/2/1 158/3/1 157/4/1
f 170/1/1 171/2/1 159/3/1 158/4/1
f 171/1/1 172/2/1 160/3/1 159/4/1
f 172/1/1 173/2/1 161/3/1 160/4/1
f 173/1/1 174/2/1 162/3/1 161/4/1
f 174/1/1 175/2/1 163/3/1 162/4/1
f 175/1/1 176/2/1 164/3/1 163/4/1
f 176/1/1 177/2/1 165/3/1 164/4/1
f 178/5/1 179/6/1 167/7/1 166/8/1
f 179/5/1 180/6/1 168/7/1 167/8/1
f 180/1/1 181/2/1 169/3/1 168/4/1
f 181/1/1 182/2/1 170/3/1 169/4/1
f 182/1/1 183/2/1 171/3/1 170/4/1
f 183/1/1 184/2/1 172/3/1 171/4/1
f 184/1/1 185/2/1 173/3/1 172/4/1
f 185/1/1 186/2/1 174/3/1 173/4/1
f 186/1/1 187/2/1 175/3/1 174/4/1
f 187/1/1 188/2/1 176/3/1 175/4/1
f 188/1/1 189/2/1 177/3/1 176/4/1

g mesh_0002
f 190/9/1 4/10/1 191/11/1 192/12/1
f 4/13/1 3/14/1 193/15/1 191/16/1
f 3/13/1 6/14/1 194/15/1 193/16/1
f 6/13/1 8/14/1 195/15/1 194/16/1
f 8/13/1 10/14/1 196/15/1 195/16/1
f 10/13/1 12/14/1 197/15/1 196/16/1
f 12/13/1 14/14/1 198/15/1 197/16/1
f 14/13/1 16/14/1 199/15/1 198/16/1
f 16/13/1 18/14/1 200/15/1 199/16/1
f 18/13/1 20/14/1 201/15/1 200/16/1
f 20/13/1 22/14/1 202/15/1 201/16/1
f 22/13/1 24/14/1 203/15/1 202/16/1
f 24/13/1 26/14/1 204/15/1 203/16/1
f 26/13/1 28/14/1 205/15/1 204/16/1
f 28/13/1 30/14/1 206/15/1 205/16/1
f 30/13/1 207/14/1 208/15/1 206/16/1
f 207/13/1 209/14/1 210/15/1 208/16/1
f 209/13/1 211/14/1 212/15/1 210/16/1
f 211/13/1 213/14/1 214/15/1 212/16/1
f 213/13/1 215/14/1 216/15/1 214/16/1
f 215/13/1 217/14/1 218/15/1 216/16/1
f 217/13/1 219/14/1 220/15/1 218/16/1
f 219/13/1 221/14/1 222/15/1 220/16/1
f 221/13/1 223/14/1 224/15/1 222/16/1
f 223/13/1 225/14/1 226/15/1 224/16/1
f 225/13/1 227/14/1 228/15/1 226/16/1
f 227/13/1 229/14/1 230/15/1 228/16/1
f 229/13/1 231/14/1 232/15/1 230/16/1
f 231/13/1 233/14/1 234/15/1 232/16/1
f 233/13/1 235/14/1 236/15/1 234/16/1
f 235/13/1 237/14/1 238/15/1 236/16/1
f 237/13/1 239/14/1 240/15/1 238/16/1
f 239/13/1 241/14/1 242/15/1 240/16/1
f 241/13/1 243/14/1 244/15/1 242/16/1
f 243/13/1 245/14/1 246/15/1 244/16/1
f 245/13/1 247/14/1 248/15/1 246/16/1
f 247/13/1 249/14/1 250/15/1 248/16/1
f 249/13/1 251/14/1 252/15/1 250/16/1
f 251/13/1 253/14/1 254/15/1 252/16/1
f 253/13/1 255/14/1 256/15/1 254/16/1
f 255/13/1 257/14/1 258/15/1 256/16/1
f 257/13/1 259/14/1 260/15/1 258/16/1
f 259/13/1 261/14/1 262/15/1 260/16/1
f 261/13/1 263/14/1 264/15/1 262/16/1
f 263/13/1 265/14/1 266/15/1 264/16/1
f 265/17/1 267/18/1 268/19/1 266/20/1
f 269/21/1 1/22/1 4/23/1 190/24/1
f 270/21/1 271/22/1 267/23/1 265/24/1
f 272/21/1 31/22/1 1/23/1 269/24/1
f 273/21/1 274/22/1 271/23/1 270/24/1
f 275/21/1 46/22/1 31/23/1 272/24/1
f 276/21/1 277/22/1 274/23/1 273/24/1
f 278/21/1 61/22/1 46/23/1 275/24/1
f 279/21/1 280/22/1 277/23/1 276/24/1
f 281/21/1 76/22/1 61/23/1 278/24/1
f 282/21/1 283/22/1 280/23/1 279/24/1
f 284/21/1 91/22/1 76/23/1 281/24/1
f 285/21/1 286/22/1 283/23/1 282/24/1
f 287/21/1 106/22/1 91/23/1 284/24/1
f 288/21/1 289/22/1 286/23/1 285/24/1
f 290/21/1 118/22/1 106/23/1 287/24/1
f 291/21/1 292/22/1 289/23/1 288/24/1
f 293/21/1 130/22/1 118/23/1 290/24/1
f 294/9/1 295/10/1 296/11/1 297/12/1
f 295/13/1 298/14/1 299/15/1 296/16/1
f 298/13/1 300/14/1 301/15/1 299/16/1
f 300/13/1 302/14/1 303/15/1 301/16/1
f 302/13/1 304/14/1 305/15/1 303/16/1
f 304/13/1 306/14/1 307/15/1 305/16/1
f 306/13/1 308/14/1 309/15/1 307/16/1
f 308/13/1 310/14/1 311/15/1 309/16/1
f 310/13/1 312/14/1 313/15/1 311/16/1
f 312/13/1 314/14/1 315/15/1 313/16/1
f 314/13/1 316/14/1 317/15/1 315/16/1
f 316/13/1 318/14/1 319/15/1 317/16/1
f 318/13/1 320/14/1 321/15/1 319/16/1
f 320/13/1 322/14/1 323/15/1 321/16/1
f 322/13/1 324/14/1 325/15/1 323/16/1
f 324/13/1 326/14/1 327/15/1 325/16/1
f 326/13/1 328/14/1 291/15/1 327/16/1
f 328/25/1 329/26/1 292/27/1 291/28/1
f 330/21/1 142/22/1 130/23/1 293/24/1
f 331/21/1 332/22/1 295/23/1 294/24/1
f 333/21/1 154/22/1 142/23/1 330/24/1
f 334/21/1 335/22/1 332/23/1 331/24/1
f 336/21/1 166/22/1 154/23/1 333/24/1
f 337/21/1 338/22/1 335/23/1 334/24/1
f 339/21/1 178/22/1 166/23/1 336/24/1
f 340/21/1 341/22/1 338/23/1 337/24/1
f 342/29/1 343/30/1 178/31/1 339/32/1
f 343/13/1 344/14/1 179/15/1 178/16/1
f 344/13/1 345/14/1 180/15/1 179/16/1
f 345/13/1 346/14/1 181/15/1 180/16/1
f 346/13/1 347/14/1 182/15/1 181/16/1
f 347/13/1 348/14/1 183/15/1 182/16/1
f 348/13/1 349/14/1 184/15/1 183/16/1
f 349/13/1 350/14/1 185/15/1 184/16/1
f 350/13/1 351/14/1 186/15/1 185/16/1
f 351/13/1 352/14/1 187/15/1 186/16/1
f 352/13/1 353/14/1 188/15/1 187/16/1
f 353/17/1 354/18/1 189/19/1 188/20/1
f 355/21/1 356/22/1 341/23/1 340/24/1
f 357/21/1 358/22/1 354/23/1 353/24/1
f 359/21/1 360/22/1 356/23/1 355/24/1
f 361/21/1 362/22/1 358/23/1 357/24/1
f 363/21/1 364/22/1 360/23/1 359/24/1
f 365/21/1 366/22/1 362/23/1 361/24/1
f 367/21/1 368/22/1 364/23/1 363/24/1
f 369/21/1 370/22/1 366/23/1 365/24/1
f 371/21/1 372/22/1 368/23/1 367/24/1
f 373/21/1 374/22/1 370/23/1 369/24/1
f 375/21/1 376/22/1 372/23/1 371/24/1
f 377/21/1 378/22/1 374/23/1 373/24/1
f 379/21/1 380/22/1 376/23/1 375/24/1
f 381/29/1 382/30/1 378/31/1 377/32/1
f 382/13/1 383/14/1 384/15/1 378/16/1
f 383/13/1 385/14/1 386/15/1 384/16/1
f 385/13/1 387/14/1 388/15/1 386/16/1
f 387/13/1 389/14/1 390/15/1 388/16/1
f 389/13/1 391/14/1 392/15/1 390/16/1
f 391/13/1 393/14/1 394/15/1 392/16/1
f 393/13/1 395/14/1 396/15/1 394/16/1
f 395/13/1 397/14/1 398/15/1 396/16/1
f 397/13/1 399/14/1 400/15/1 398/16/1
f 399/13/1 401/14/1 402/15/1 400/16/1
f 401/13/1 403/14/1 404/15/1 402/16/1
f 403/13/1 405/14/1 406/15/1 404/16/1
f 405/13/1 407/14/1 408/15/1 406/16/1
f 407/13/1 409/14/1 410/15/1 408/16/1
f 409/13/1 411/14/1 412/15/1 410/16/1
f 411/13/1 413/14/1 379/15/1 412/16/1
f 413/25/1 414/26/1 380/27/1 379/28/1

g mesh_tile_0201
f 190/1/1 4/2/1 191/3/1 192/4/1

g mesh_tile_0202
f 190/21/1 4/22/1 191/23/1 192/24/1

g mesh_tile_0301
f 190/1/1 4/2/1 191/3/1 192/4/1

