# Wavefront OBJ file automatically generated by Tiled2Unity

# Vertices (Count = 373)
v -23 -3 0
v -24 -3 0
v -24 -2 0
v -23 -2 0
v -25 -3 0
v -25 -2 0
v -26 -3 0
v -26 -2 0
v -27 -3 0
v -27 -2 0
v -28 -3 0
v -28 -2 0
v -29 -3 0
v -29 -2 0
v -30 -3 0
v -30 -2 0
v -31 -3 0
v -31 -2 0
v -32 -3 0
v -32 -2 0
v -23 -4 0
v -24 -4 0
v -25 -4 0
v -26 -4 0
v -27 -4 0
v -28 -4 0
v -29 -4 0
v -30 -4 0
v -31 -4 0
v -32 -4 0
v -23 -5 0
v -24 -5 0
v -25 -5 0
v -26 -5 0
v -27 -5 0
v -28 -5 0
v -29 -5 0
v -30 -5 0
v -31 -5 0
v -32 -5 0
v -6 -6 0
v -7 -6 0
v -7 -5 0
v -6 -5 0
v -8 -6 0
v -8 -5 0
v -9 -6 0
v -9 -5 0
v -10 -6 0
v -10 -5 0
v -11 -6 0
v -11 -5 0
v -12 -6 0
v -12 -5 0
v -23 -6 0
v -24 -6 0
v -25 -6 0
v -26 -6 0
v -27 -6 0
v -28 -6 0
v -29 -6 0
v -30 -6 0
v -31 -6 0
v -32 -6 0
v -6 -7 0
v -7 -7 0
v -8 -7 0
v -9 -7 0
v -10 -7 0
v -11 -7 0
v -12 -7 0
v -23 -7 0
v -24 -7 0
v -25 -7 0
v -26 -7 0
v -27 -7 0
v -28 -7 0
v -29 -7 0
v -30 -7 0
v -31 -7 0
v -32 -7 0
v -6 -8 0
v -7 -8 0
v -8 -8 0
v -9 -8 0
v -10 -8 0
v -11 -8 0
v -12 -8 0
v -13 -8 0
v -13 -7 0
v -14 -8 0
v -14 -7 0
v -15 -8 0
v -15 -7 0
v -16 -8 0
v -16 -7 0
v -17 -8 0
v -17 -7 0
v -18 -8 0
v -18 -7 0
v -19 -8 0
v -19 -7 0
v -20 -8 0
v -20 -7 0
v -21 -8 0
v -21 -7 0
v -22 -8 0
v -22 -7 0
v -23 -8 0
v -24 -8 0
v -25 -8 0
v -26 -8 0
v -27 -8 0
v -28 -8 0
v -29 -8 0
v -30 -8 0
v -31 -8 0
v -32 -8 0
v -6 -9 0
v -7 -9 0
v -8 -9 0
v -9 -9 0
v -10 -9 0
v -11 -9 0
v -12 -9 0
v -13 -9 0
v -14 -9 0
v -15 -9 0
v -16 -9 0
v -17 -9 0
v -18 -9 0
v -19 -9 0
v -20 -9 0
v -21 -9 0
v -22 -9 0
v -23 -9 0
v -24 -9 0
v -25 -9 0
v -26 -9 0
v -27 -9 0
v -28 -9 0
v -29 -9 0
v -30 -9 0
v -31 -9 0
v -32 -9 0
v -6 -10 0
v -7 -10 0
v -8 -10 0
v -9 -10 0
v -10 -10 0
v -11 -10 0
v -12 -10 0
v -19 -10 0
v -20 -10 0
v -21 -10 0
v -23 -10 0
v -24 -10 0
v -25 -10 0
v -26 -10 0
v -27 -10 0
v -28 -10 0
v -29 -10 0
v -30 -10 0
v -31 -10 0
v -32 -10 0
v -6 -11 0
v -7 -11 0
v -8 -11 0
v -9 -11 0
v -10 -11 0
v -11 -11 0
v -12 -11 0
v -19 -11 0
v -20 -11 0
v -21 -11 0
v -23 -11 0
v -24 -11 0
v -25 -11 0
v -26 -11 0
v -27 -11 0
v -28 -11 0
v -29 -11 0
v -30 -11 0
v -31 -11 0
v -32 -11 0
v -14 -12 0
v -15 -12 0
v -15 -11 0
v -14 -11 0
v -16 -12 0
v -16 -11 0
v -17 -12 0
v -17 -11 0
v -18 -12 0
v -18 -11 0
v -19 -12 0
v -20 -12 0
v -21 -12 0
v -23 -12 0
v -24 -12 0
v -25 -12 0
v -26 -12 0
v -27 -12 0
v -28 -12 0
v -29 -12 0
v -30 -12 0
v -31 -12 0
v -32 -12 0
v -14 -13 0
v -15 -13 0
v -16 -13 0
v -17 -13 0
v -18 -13 0
v -19 -13 0
v -20 -13 0
v -21 -13 0
v -23 -13 0
v -24 -13 0
v -25 -13 0
v -26 -13 0
v -27 -13 0
v -28 -13 0
v -29 -13 0
v -30 -13 0
v -31 -13 0
v -32 -13 0
v -14 -14 0
v -15 -14 0
v -16 -14 0
v -17 -14 0
v -18 -14 0
v -19 -14 0
v -20 -14 0
v -21 -14 0
v -14 -15 0
v -15 -15 0
v -16 -15 0
v -17 -15 0
v -18 -15 0
v -19 -15 0
v -20 -15 0
v -21 -15 0
v -14 -16 0
v -15 -16 0
v -16 -16 0
v -17 -16 0
v -18 -16 0
v -19 -16 0
v -20 -16 0
v -21 -16 0
v -14 -17 0
v -15 -17 0
v -16 -17 0
v -17 -17 0
v -18 -17 0
v -19 -17 0
v -20 -17 0
v -21 -17 0
v -14 -18 0
v -15 -18 0
v -16 -18 0
v -17 -18 0
v -18 -18 0
v -19 -18 0
v -20 -18 0
v -21 -18 0
v -22 -2 0
v -23 -1 0
v -22 -1 0
v -24 -1 0
v -25 -1 0
v -26 -1 0
v -27 -1 0
v -28 -1 0
v -29 -1 0
v -30 -1 0
v -31 -1 0
v -32 -1 0
v -33 -2 0
v -33 -1 0
v -22 -3 0
v -33 -3 0
v -22 -4 0
v -33 -4 0
v -5 -5 0
v -6 -4 0
v -5 -4 0
v -7 -4 0
v -8 -4 0
v -9 -4 0
v -10 -4 0
v -11 -4 0
v -12 -4 0
v -13 -5 0
v -13 -4 0
v -22 -5 0
v -33 -5 0
v -5 -6 0
v -13 -6 0
v -22 -6 0
v -33 -6 0
v -5 -7 0
v -14 -6 0
v -15 -6 0
v -16 -6 0
v -17 -6 0
v -18 -6 0
v -19 -6 0
v -20 -6 0
v -21 -6 0
v -33 -7 0
v -5 -8 0
v -33 -8 0
v -5 -9 0
v -33 -9 0
v -5 -10 0
v -13 -10 0
v -14 -10 0
v -15 -10 0
v -16 -10 0
v -17 -10 0
v -18 -10 0
v -22 -10 0
v -33 -10 0
v -5 -11 0
v -13 -11 0
v -22 -11 0
v -33 -11 0
v -5 -12 0
v -6 -12 0
v -7 -12 0
v -8 -12 0
v -9 -12 0
v -10 -12 0
v -11 -12 0
v -12 -12 0
v -13 -12 0
v -22 -12 0
v -33 -12 0
v -13 -13 0
v -22 -13 0
v -33 -13 0
v -13 -14 0
v -22 -14 0
v -23 -14 0
v -24 -14 0
v -25 -14 0
v -26 -14 0
v -27 -14 0
v -28 -14 0
v -29 -14 0
v -30 -14 0
v -31 -14 0
v -32 -14 0
v -33 -14 0
v -13 -15 0
v -22 -15 0
v -13 -16 0
v -22 -16 0
v -13 -17 0
v -22 -17 0
v -13 -18 0
v -22 -18 0
v -13 -19 0
v -14 -19 0
v -15 -19 0
v -16 -19 0
v -17 -19 0
v -18 -19 0
v -19 -19 0
v -20 -19 0
v -21 -19 0
v -22 -19 0

# Texture cooridinates (Count = 28)
vt 1.220703E-05 0.9000122
vt 0.09998779 0.9000122
vt 0.09998779 0.9999878
vt 1.220703E-05 0.9999878
vt 0.6000122 0.9000122
vt 0.6999878 0.9000122
vt 0.6999878 0.9999878
vt 0.6000122 0.9999878
vt 0.2000122 0.9000122
vt 0.2999878 0.9000122
vt 0.2999878 0.9999878
vt 0.2000122 0.9999878
vt 0.5000122 0.9000122
vt 0.5999878 0.9000122
vt 0.5999878 0.9999878
vt 0.5000122 0.9999878
vt 0.1000122 0.9000122
vt 0.1999878 0.9000122
vt 0.1999878 0.9999878
vt 0.1000122 0.9999878
vt 0.3000122 0.9000122
vt 0.3999878 0.9000122
vt 0.3999878 0.9999878
vt 0.3000122 0.9999878
vt 0.4000122 0.9000122
vt 0.4999878 0.9000122
vt 0.4999878 0.9999878
vt 0.4000122 0.9999878

# Normal
vn 0 0 -1

# Groups (Count = 3)

g mesh_0001
f 1/1/1 2/2/1 3/3/1 4/4/1
f 2/1/1 5/2/1 6/3/1 3/4/1
f 5/1/1 7/2/1 8/3/1 6/4/1
f 7/1/1 9/2/1 10/3/1 8/4/1
f 9/1/1 11/2/1 12/3/1 10/4/1
f 11/1/1 13/2/1 14/3/1 12/4/1
f 13/1/1 15/2/1 16/3/1 14/4/1
f 15/1/1 17/2/1 18/3/1 16/4/1
f 17/1/1 19/2/1 20/3/1 18/4/1
f 21/1/1 22/2/1 2/3/1 1/4/1
f 22/1/1 23/2/1 5/3/1 2/4/1
f 23/1/1 24/2/1 7/3/1 5/4/1
f 24/1/1 25/2/1 9/3/1 7/4/1
f 25/1/1 26/2/1 11/3/1 9/4/1
f 26/1/1 27/2/1 13/3/1 11/4/1
f 27/1/1 28/2/1 15/3/1 13/4/1
f 28/1/1 29/2/1 17/3/1 15/4/1
f 29/1/1 30/2/1 19/3/1 17/4/1
f 31/1/1 32/2/1 22/3/1 21/4/1
f 32/1/1 33/2/1 23/3/1 22/4/1
f 33/1/1 34/2/1 24/3/1 23/4/1
f 34/1/1 35/2/1 25/3/1 24/4/1
f 35/1/1 36/2/1 26/3/1 25/4/1
f 36/1/1 37/2/1 27/3/1 26/4/1
f 37/1/1 38/2/1 28/3/1 27/4/1
f 38/1/1 39/2/1 29/3/1 28/4/1
f 39/1/1 40/2/1 30/3/1 29/4/1
f 41/1/1 42/2/1 43/3/1 44/4/1
f 42/1/1 45/2/1 46/3/1 43/4/1
f 45/1/1 47/2/1 48/3/1 46/4/1
f 47/1/1 49/2/1 50/3/1 48/4/1
f 49/1/1 51/2/1 52/3/1 50/4/1
f 51/1/1 53/2/1 54/3/1 52/4/1
f 55/1/1 56/2/1 32/3/1 31/4/1
f 56/1/1 57/2/1 33/3/1 32/4/1
f 57/1/1 58/2/1 34/3/1 33/4/1
f 58/1/1 59/2/1 35/3/1 34/4/1
f 59/1/1 60/2/1 36/3/1 35/4/1
f 60/1/1 61/2/1 37/3/1 36/4/1
f 61/1/1 62/2/1 38/3/1 37/4/1
f 62/1/1 63/2/1 39/3/1 38/4/1
f 63/1/1 64/2/1 40/3/1 39/4/1
f 65/1/1 66/2/1 42/3/1 41/4/1
f 66/1/1 67/2/1 45/3/1 42/4/1
f 67/1/1 68/2/1 47/3/1 45/4/1
f 68/1/1 69/2/1 49/3/1 47/4/1
f 69/1/1 70/2/1 51/3/1 49/4/1
f 70/1/1 71/2/1 53/3/1 51/4/1
f 72/1/1 73/2/1 56/3/1 55/4/1
f 73/1/1 74/2/1 57/3/1 56/4/1
f 74/1/1 75/2/1 58/3/1 57/4/1
f 75/1/1 76/2/1 59/3/1 58/4/1
f 76/1/1 77/2/1 60/3/1 59/4/1
f 77/1/1 78/2/1 61/3/1 60/4/1
f 78/1/1 79/2/1 62/3/1 61/4/1
f 79/1/1 80/2/1 63/3/1 62/4/1
f 80/1/1 81/2/1 64/3/1 63/4/1
f 82/1/1 83/2/1 66/3/1 65/4/1
f 83/1/1 84/2/1 67/3/1 66/4/1
f 84/1/1 85/2/1 68/3/1 67/4/1
f 85/1/1 86/2/1 69/3/1 68/4/1
f 86/1/1 87/2/1 70/3/1 69/4/1
f 87/1/1 88/2/1 71/3/1 70/4/1
f 88/1/1 89/2/1 90/3/1 71/4/1
f 89/1/1 91/2/1 92/3/1 90/4/1
f 91/1/1 93/2/1 94/3/1 92/4/1
f 93/1/1 95/2/1 96/3/1 94/4/1
f 95/1/1 97/2/1 98/3/1 96/4/1
f 97/1/1 99/2/1 100/3/1 98/4/1
f 99/1/1 101/2/1 102/3/1 100/4/1
f 101/1/1 103/2/1 104/3/1 102/4/1
f 103/1/1 105/2/1 106/3/1 104/4/1
f 105/1/1 107/2/1 108/3/1 106/4/1
f 107/1/1 109/2/1 72/3/1 108/4/1
f 109/1/1 110/2/1 73/3/1 72/4/1
f 110/1/1 111/2/1 74/3/1 73/4/1
f 111/1/1 112/2/1 75/3/1 74/4/1
f 112/1/1 113/2/1 76/3/1 75/4/1
f 113/1/1 114/2/1 77/3/1 76/4/1
f 114/1/1 115/2/1 78/3/1 77/4/1
f 115/1/1 116/2/1 79/3/1 78/4/1
f 116/1/1 117/2/1 80/3/1 79/4/1
f 117/1/1 118/2/1 81/3/1 80/4/1
f 119/1/1 120/2/1 83/3/1 82/4/1
f 120/1/1 121/2/1 84/3/1 83/4/1
f 121/1/1 122/2/1 85/3/1 84/4/1
f 122/1/1 123/2/1 86/3/1 85/4/1
f 123/1/1 124/2/1 87/3/1 86/4/1
f 124/1/1 125/2/1 88/3/1 87/4/1
f 125/1/1 126/2/1 89/3/1 88/4/1
f 126/1/1 127/2/1 91/3/1 89/4/1
f 127/1/1 128/2/1 93/3/1 91/4/1
f 128/1/1 129/2/1 95/3/1 93/4/1
f 129/1/1 130/2/1 97/3/1 95/4/1
f 130/1/1 131/2/1 99/3/1 97/4/1
f 131/1/1 132/2/1 101/3/1 99/4/1
f 132/1/1 133/2/1 103/3/1 101/4/1
f 133/1/1 134/2/1 105/3/1 103/4/1
f 134/1/1 135/2/1 107/3/1 105/4/1
f 135/1/1 136/2/1 109/3/1 107/4/1
f 136/1/1 137/2/1 110/3/1 109/4/1
f 137/1/1 138/2/1 111/3/1 110/4/1
f 138/1/1 139/2/1 112/3/1 111/4/1
f 139/1/1 140/2/1 113/3/1 112/4/1
f 140/1/1 141/2/1 114/3/1 113/4/1
f 141/1/1 142/2/1 115/3/1 114/4/1
f 142/1/1 143/2/1 116/3/1 115/4/1
f 143/1/1 144/2/1 117/3/1 116/4/1
f 144/1/1 145/2/1 118/3/1 117/4/1
f 146/1/1 147/2/1 120/3/1 119/4/1
f 147/1/1 148/2/1 121/3/1 120/4/1
f 148/1/1 149/2/1 122/3/1 121/4/1
f 149/1/1 150/2/1 123/3/1 122/4/1
f 150/1/1 151/2/1 124/3/1 123/4/1
f 151/1/1 152/2/1 125/3/1 124/4/1
f 153/1/1 154/2/1 133/3/1 132/4/1
f 154/1/1 155/2/1 134/3/1 133/4/1
f 156/1/1 157/2/1 137/3/1 136/4/1
f 157/1/1 158/2/1 138/3/1 137/4/1
f 158/1/1 159/2/1 139/3/1 138/4/1
f 159/1/1 160/2/1 140/3/1 139/4/1
f 160/1/1 161/2/1 141/3/1 140/4/1
f 161/1/1 162/2/1 142/3/1 141/4/1
f 162/1/1 163/2/1 143/3/1 142/4/1
f 163/1/1 164/2/1 144/3/1 143/4/1
f 164/1/1 165/2/1 145/3/1 144/4/1
f 166/1/1 167/2/1 147/3/1 146/4/1
f 167/1/1 168/2/1 148/3/1 147/4/1
f 168/1/1 169/2/1 149/3/1 148/4/1
f 169/1/1 170/2/1 150/3/1 149/4/1
f 170/1/1 171/2/1 151/3/1 150/4/1
f 171/1/1 172/2/1 152/3/1 151/4/1
f 173/1/1 174/2/1 154/3/1 153/4/1
f 174/1/1 175/2/1 155/3/1 154/4/1
f 176/1/1 177/2/1 157/3/1 156/4/1
f 177/1/1 178/2/1 158/3/1 157/4/1
f 178/1/1 179/2/1 159/3/1 158/4/1
f 179/1/1 180/2/1 160/3/1 159/4/1
f 180/1/1 181/2/1 161/3/1 160/4/1
f 181/1/1 182/2/1 162/3/1 161/4/1
f 182/1/1 183/2/1 163/3/1 162/4/1
f 183/1/1 184/2/1 164/3/1 163/4/1
f 184/1/1 185/2/1 165/3/1 164/4/1
f 186/1/1 187/2/1 188/3/1 189/4/1
f 187/1/1 190/2/1 191/3/1 188/4/1
f 190/1/1 192/2/1 193/3/1 191/4/1
f 192/1/1 194/2/1 195/3/1 193/4/1
f 194/1/1 196/2/1 173/3/1 195/4/1
f 196/1/1 197/2/1 174/3/1 173/4/1
f 197/1/1 198/2/1 175/3/1 174/4/1
f 199/1/1 200/2/1 177/3/1 176/4/1
f 200/1/1 201/2/1 178/3/1 177/4/1
f 201/1/1 202/2/1 179/3/1 178/4/1
f 202/1/1 203/2/1 180/3/1 179/4/1
f 203/1/1 204/2/1 181/3/1 180/4/1
f 204/1/1 205/2/1 182/3/1 181/4/1
f 205/1/1 206/2/1 183/3/1 182/4/1
f 206/1/1 207/2/1 184/3/1 183/4/1
f 207/1/1 208/2/1 185/3/1 184/4/1
f 209/1/1 210/2/1 187/3/1 186/4/1
f 210/1/1 211/2/1 190/3/1 187/4/1
f 211/1/1 212/2/1 192/3/1 190/4/1
f 212/1/1 213/2/1 194/3/1 192/4/1
f 213/1/1 214/2/1 196/3/1 194/4/1
f 214/1/1 215/2/1 197/3/1 196/4/1
f 215/1/1 216/2/1 198/3/1 197/4/1
f 217/1/1 218/2/1 200/3/1 199/4/1
f 218/1/1 219/2/1 201/3/1 200/4/1
f 219/1/1 220/2/1 202/3/1 201/4/1
f 220/1/1 221/2/1 203/3/1 202/4/1
f 221/1/1 222/2/1 204/3/1 203/4/1
f 222/1/1 223/2/1 205/3/1 204/4/1
f 223/1/1 224/2/1 206/3/1 205/4/1
f 224/1/1 225/2/1 207/3/1 206/4/1
f 225/1/1 226/2/1 208/3/1 207/4/1
f 227/1/1 228/2/1 210/3/1 209/4/1
f 228/1/1 229/2/1 211/3/1 210/4/1
f 229/1/1 230/2/1 212/3/1 211/4/1
f 230/1/1 231/2/1 213/3/1 212/4/1
f 231/1/1 232/2/1 214/3/1 213/4/1
f 232/1/1 233/2/1 215/3/1 214/4/1
f 233/1/1 234/2/1 216/3/1 215/4/1
f 235/1/1 236/2/1 228/3/1 227/4/1
f 236/1/1 237/2/1 229/3/1 228/4/1
f 237/1/1 238/2/1 230/3/1 229/4/1
f 238/1/1 239/2/1 231/3/1 230/4/1
f 239/1/1 240/2/1 232/3/1 231/4/1
f 240/1/1 241/2/1 233/3/1 232/4/1
f 241/1/1 242/2/1 234/3/1 233/4/1
f 243/1/1 244/2/1 236/3/1 235/4/1
f 244/1/1 245/2/1 237/3/1 236/4/1
f 245/1/1 246/2/1 238/3/1 237/4/1
f 246/1/1 247/2/1 239/3/1 238/4/1
f 247/1/1 248/2/1 240/3/1 239/4/1
f 248/1/1 249/2/1 241/3/1 240/4/1
f 249/1/1 250/2/1 242/3/1 241/4/1
f 251/1/1 252/2/1 244/3/1 243/4/1
f 252/1/1 253/2/1 245/3/1 244/4/1
f 253/1/1 254/2/1 246/3/1 245/4/1
f 254/1/1 255/2/1 247/3/1 246/4/1
f 255/1/1 256/2/1 248/3/1 247/4/1
f 256/1/1 257/2/1 249/3/1 248/4/1
f 257/1/1 258/2/1 250/3/1 249/4/1
f 259/1/1 260/2/1 252/3/1 251/4/1
f 260/1/1 261/2/1 253/3/1 252/4/1
f 261/1/1 262/2/1 254/3/1 253/4/1
f 262/1/1 263/2/1 255/3/1 254/4/1
f 263/1/1 264/2/1 256/3/1 255/4/1
f 264/1/1 265/2/1 257/3/1 256/4/1
f 265/1/1 266/2/1 258/3/1 257/4/1

g mesh_0002
f 267/5/1 4/6/1 268/7/1 269/8/1
f 4/9/1 3/10/1 270/11/1 268/12/1
f 3/9/1 6/10/1 271/11/1 270/12/1
f 6/9/1 8/10/1 272/11/1 271/12/1
f 8/9/1 10/10/1 273/11/1 272/12/1
f 10/9/1 12/10/1 274/11/1 273/12/1
f 12/9/1 14/10/1 275/11/1 274/12/1
f 14/9/1 16/10/1 276/11/1 275/12/1
f 16/9/1 18/10/1 277/11/1 276/12/1
f 18/9/1 20/10/1 278/11/1 277/12/1
f 20/13/1 279/14/1 280/15/1 278/16/1
f 281/17/1 1/18/1 4/19/1 267/20/1
f 19/17/1 282/18/1 279/19/1 20/20/1
f 283/17/1 21/18/1 1/19/1 281/20/1
f 30/17/1 284/18/1 282/19/1 19/20/1
f 285/5/1 44/6/1 286/7/1 287/8/1
f 44/9/1 43/10/1 288/11/1 286/12/1
f 43/9/1 46/10/1 289/11/1 288/12/1
f 46/9/1 48/10/1 290/11/1 289/12/1
f 48/9/1 50/10/1 291/11/1 290/12/1
f 50/9/1 52/10/1 292/11/1 291/12/1
f 52/9/1 54/10/1 293/11/1 292/12/1
f 54/13/1 294/14/1 295/15/1 293/16/1
f 296/17/1 31/18/1 21/19/1 283/20/1
f 40/17/1 297/18/1 284/19/1 30/20/1
f 298/17/1 41/18/1 44/19/1 285/20/1
f 53/17/1 299/18/1 294/19/1 54/20/1
f 300/17/1 55/18/1 31/19/1 296/20/1
f 64/17/1 301/18/1 297/19/1 40/20/1
f 302/17/1 65/18/1 41/19/1 298/20/1
f 71/21/1 90/22/1 299/23/1 53/24/1
f 90/9/1 92/10/1 303/11/1 299/12/1
f 92/9/1 94/10/1 304/11/1 303/12/1
f 94/9/1 96/10/1 305/11/1 304/12/1
f 96/9/1 98/10/1 306/11/1 305/12/1
f 98/9/1 100/10/1 307/11/1 306/12/1
f 100/9/1 102/10/1 308/11/1 307/12/1
f 102/9/1 104/10/1 309/11/1 308/12/1
f 104/9/1 106/10/1 310/11/1 309/12/1
f 106/9/1 108/10/1 300/11/1 310/12/1
f 108/25/1 72/26/1 55/27/1 300/28/1
f 81/17/1 311/18/1 301/19/1 64/20/1
f 312/17/1 82/18/1 65/19/1 302/20/1
f 118/17/1 313/18/1 311/19/1 81/20/1
f 314/17/1 119/18/1 82/19/1 312/20/1
f 145/17/1 315/18/1 313/19/1 118/20/1
f 316/17/1 146/18/1 119/19/1 314/20/1
f 152/5/1 317/6/1 126/7/1 125/8/1
f 317/9/1 318/10/1 127/11/1 126/12/1
f 318/9/1 319/10/1 128/11/1 127/12/1
f 319/9/1 320/10/1 129/11/1 128/12/1
f 320/9/1 321/10/1 130/11/1 129/12/1
f 321/9/1 322/10/1 131/11/1 130/12/1
f 322/13/1 153/14/1 132/15/1 131/16/1
f 155/5/1 323/6/1 135/7/1 134/8/1
f 323/13/1 156/14/1 136/15/1 135/16/1
f 165/17/1 324/18/1 315/19/1 145/20/1
f 325/17/1 166/18/1 146/19/1 316/20/1
f 172/17/1 326/18/1 317/19/1 152/20/1
f 326/5/1 189/6/1 318/7/1 317/8/1
f 189/9/1 188/10/1 319/11/1 318/12/1
f 188/9/1 191/10/1 320/11/1 319/12/1
f 191/9/1 193/10/1 321/11/1 320/12/1
f 193/9/1 195/10/1 322/11/1 321/12/1
f 195/25/1 173/26/1 153/27/1 322/28/1
f 175/17/1 327/18/1 323/19/1 155/20/1
f 327/17/1 176/18/1 156/19/1 323/20/1
f 185/17/1 328/18/1 324/19/1 165/20/1
f 329/21/1 330/22/1 166/23/1 325/24/1
f 330/9/1 331/10/1 167/11/1 166/12/1
f 331/9/1 332/10/1 168/11/1 167/12/1
f 332/9/1 333/10/1 169/11/1 168/12/1
f 333/9/1 334/10/1 170/11/1 169/12/1
f 334/9/1 335/10/1 171/11/1 170/12/1
f 335/9/1 336/10/1 172/11/1 171/12/1
f 336/25/1 337/26/1 326/27/1 172/28/1
f 337/17/1 186/18/1 189/19/1 326/20/1
f 198/17/1 338/18/1 327/19/1 175/20/1
f 338/17/1 199/18/1 176/19/1 327/20/1
f 208/17/1 339/18/1 328/19/1 185/20/1
f 340/17/1 209/18/1 186/19/1 337/20/1
f 216/17/1 341/18/1 338/19/1 198/20/1
f 341/17/1 217/18/1 199/19/1 338/20/1
f 226/17/1 342/18/1 339/19/1 208/20/1
f 343/17/1 227/18/1 209/19/1 340/20/1
f 234/17/1 344/18/1 341/19/1 216/20/1
f 344/21/1 345/22/1 217/23/1 341/24/1
f 345/9/1 346/10/1 218/11/1 217/12/1
f 346/9/1 347/10/1 219/11/1 218/12/1
f 347/9/1 348/10/1 220/11/1 219/12/1
f 348/9/1 349/10/1 221/11/1 220/12/1
f 349/9/1 350/10/1 222/11/1 221/12/1
f 350/9/1 351/10/1 223/11/1 222/12/1
f 351/9/1 352/10/1 224/11/1 223/12/1
f 352/9/1 353/10/1 225/11/1 224/12/1
f 353/9/1 354/10/1 226/11/1 225/12/1
f 354/25/1 355/26/1 342/27/1 226/28/1
f 356/17/1 235/18/1 227/19/1 343/20/1
f 242/17/1 357/18/1 344/19/1 234/20/1
f 358/17/1 243/18/1 235/19/1 356/20/1
f 250/17/1 359/18/1 357/19/1 242/20/1
f 360/17/1 251/18/1 243/19/1 358/20/1
f 258/17/1 361/18/1 359/19/1 250/20/1
f 362/17/1 259/18/1 251/19/1 360/20/1
f 266/17/1 363/18/1 361/19/1 258/20/1
f 364/21/1 365/22/1 259/23/1 362/24/1
f 365/9/1 366/10/1 260/11/1 259/12/1
f 366/9/1 367/10/1 261/11/1 260/12/1
f 367/9/1 368/10/1 262/11/1 261/12/1
f 368/9/1 369/10/1 263/11/1 262/12/1
f 369/9/1 370/10/1 264/11/1 263/12/1
f 370/9/1 371/10/1 265/11/1 264/12/1
f 371/9/1 372/10/1 266/11/1 265/12/1
f 372/25/1 373/26/1 363/27/1 266/28/1

